<svg xmlns="http://www.w3.org/2000/svg" xmlns:xlink="http://www.w3.org/1999/xlink" width="25.315" height="25.316" viewBox="0 0 25.315 25.316"><defs><style>.a{fill:none;}.b{clip-path:url(#a);}.c{fill:#008c95;}</style><clipPath id="a"><rect class="a" width="25.315" height="25.316"/></clipPath></defs><g class="b"><path class="c" d="M23.443,0H1.867A1.847,1.847,0,0,0,0,1.826V23.489a1.848,1.848,0,0,0,1.867,1.827H23.443a1.852,1.852,0,0,0,1.873-1.827V1.826A1.851,1.851,0,0,0,23.443,0ZM7.51,21.572H3.751V9.491H7.51ZM5.631,7.84A2.178,2.178,0,1,1,7.807,5.662,2.177,2.177,0,0,1,5.631,7.84ZM21.573,21.572H17.818V15.7c0-1.4-.024-3.2-1.951-3.2-1.954,0-2.252,1.527-2.252,3.1v5.975H9.865V9.491h3.6v1.652h.052a3.944,3.944,0,0,1,3.553-1.951c3.8,0,4.5,2.5,4.5,5.755Z"/></g></svg>